<svg preserveAspectRatio="xMidYMid meet" viewBox="0 25.486868686868686 668.987 281.6969696969697" xmlns="http://www.w3.org/2000/svg" version="1.0" style="max-height: 500px" width="668.987" height="281.6969696969697">

<g stroke="none" fill="#000000" transform="translate(0.000000,332.000000) scale(0.100000,-0.100000)">
<path d="M486 2678 c-10 -29 -115 -682 -111 -687 12 -11 19 17 41 146 13 76&#10;24 141 24 145 0 4 52 8 115 10 l115 3 29 -75 c15 -41 41 -110 57 -152 25 -69&#10;44 -98 44 -68 0 7 -55 160 -99 273 -10 25 -8 29 14 37 44 17 86 54 113 100 35&#10;59 38 163 6 206 -46 63 -64 69 -210 72 -106 3 -135 1 -138 -10z m274 -30 c59&#10;-30 83 -75 76 -141 -7 -69 -42 -126 -99 -161 -46 -28 -57 -30 -168 -34 -118&#10;-4 -119 -4 -119 18 0 29 49 321 56 332 3 4 51 8 107 8 87 0 110 -4 147 -22z"/>
<path d="M1285 2501 c-50 -23 -119 -97 -147 -159 -18 -37 -22 -67 -22 -143 -1&#10;-88 1 -99 26 -137 38 -57 78 -76 158 -76 71 0 106 14 160 64 47 44 31 48 -24&#10;6 -55 -42 -115 -60 -165 -51 -90 17 -131 68 -139 176 l-5 69 206 0 c228 0 217&#10;-3 217 70 0 78 -42 155 -102 186 -37 19 -115 17 -163 -5z m165 -24 c49 -32 73&#10;-79 74 -145 l1 -57 -192 -3 c-214 -3 -206 -6 -174 64 60 132 203 201 291 141z"/>
<path d="M1955 2497 c-72 -41 -105 -121 -73 -180 17 -34 36 -44 124 -72 103&#10;-32 126 -49 126 -98 0 -83 -72 -142 -174 -142 -70 0 -108 25 -124 81 -10 32&#10;-13 36 -19 21 -11 -26 18 -82 52 -104 19 -13 46 -18 93 -18 117 0 190 60 190&#10;157 0 70 -31 99 -130 123 -119 29 -157 85 -110 162 36 60 144 92 203 62 29&#10;-15 56 -50 57 -71 0 -10 5 -18 10 -18 31 0 -8 83 -50 105 -44 23 -127 19 -175&#10;-8z"/>
<path d="M2605 2501 c-44 -20 -103 -77 -91 -88 4 -4 17 5 29 20 47 57 165 84&#10;227 52 39 -20 50 -43 50 -103 0 -62 -17 -79 -96 -93 -150 -26 -178 -33 -206&#10;-53 -72 -49 -97 -132 -58 -194 52 -83 179 -81 268 5 l44 42 -6 -50 c-4 -31 -3&#10;-49 4 -49 5 0 10 3 10 8 0 4 14 86 30 182 43 253 40 289 -30 325 -40 21 -126&#10;19 -175 -4z m202 -228 c-3 -10 -8 -36 -12 -57 -24 -143 -162 -247 -268 -202&#10;-69 28 -84 113 -31 175 31 37 79 56 178 71 44 6 89 16 100 20 32 13 38 12 33&#10;-7z"/>
<path d="M673 1492 c-146 -52 -245 -181 -280 -367 -41 -215 42 -374 210 -405&#10;67 -13 159 1 220 32 73 37 149 119 176 191 10 26 9 27 -24 27 -30 0 -37 -5&#10;-54 -37 -73 -142 -282 -198 -391 -106 -90 75 -105 251 -35 409 28 63 104 148&#10;158 175 101 52 206 42 274 -25 23 -23 45 -55 48 -71 12 -53 14 -55 48 -55 l34&#10;0 -8 45 c-15 81 -65 146 -138 181 -54 26 -174 29 -238 6z"/>
<path d="M6120 1493 c0 -5 -29 -178 -64 -385 -34 -208 -60 -380 -58 -383 7 -7&#10;62 -6 62 1 0 9 120 727 125 752 5 20 2 22 -30 22 -19 0 -35 -3 -35 -7z"/>
<path d="M3640 1380 l-12 -70 -44 0 c-31 0 -44 -4 -44 -14 0 -8 -3 -21 -6 -30&#10;-5 -13 2 -16 41 -16 39 0 46 -3 41 -17 -17 -61 -67 -409 -61 -430 3 -14 19&#10;-38 35 -54 25 -26 36 -29 89 -29 60 0 61 0 61 29 0 26 -3 29 -47 34 -52 6 -73&#10;25 -72 66 0 14 14 109 32 211 l32 185 61 3 c62 3 73 11 74 55 0 4 -28 7 -61 7&#10;l-61 0 7 57 c4 31 9 62 12 70 4 9 -5 13 -30 13 l-35 0 -12 -70z"/>
<path d="M1703 1291 c-101 -46 -180 -173 -190 -305 -8 -100 9 -157 61 -212 53&#10;-55 107 -71 193 -56 143 23 247 155 260 328 9 119 -38 214 -124 250 -47 20&#10;-150 17 -200 -5z m201 -71 c46 -41 60 -86 54 -176 -9 -133 -84 -239 -188 -264&#10;-130 -31 -215 68 -190 222 24 152 116 248 237 248 44 0 58 -5 87 -30z"/>
<path d="M2595 1288 c-3 -13 -23 -133 -45 -268 -22 -135 -43 -257 -46 -272 -5&#10;-26 -3 -28 29 -28 l34 0 33 198 c32 193 49 251 86 283 67 58 177 66 221 15 12&#10;-15 26 -39 29 -53 4 -14 -7 -111 -25 -217 -17 -105 -31 -199 -31 -208 0 -13 8&#10;-18 29 -18 34 0 29 -18 72 247 l33 202 -20 48 c-28 68 -69 93 -151 93 -71 0&#10;-110 -15 -161 -64 l-34 -31 7 48 7 47 -31 0 c-24 0 -32 -5 -36 -22z"/>
<path d="M4345 1298 c-4 -13 -95 -561 -95 -573 0 -4 15 -5 33 -3 l32 3 35 205&#10;c20 113 41 214 47 225 29 52 104 95 167 95 33 0 46 13 46 46 0 21 -83 18 -129&#10;-6 -22 -11 -49 -32 -61 -47 l-23 -28 7 48 7 47 -31 0 c-17 0 -32 -6 -35 -12z"/>
<path d="M5195 1286 c-167 -77 -250 -342 -152 -487 73 -108 239 -117 351 -18&#10;156 138 172 408 30 499 -63 39 -153 42 -229 6z m188 -55 c39 -26 55 -51 68&#10;-110 25 -117 -46 -276 -146 -328 -45 -24 -137 -23 -171 2 -95 71 -84 270 20&#10;383 22 25 55 51 71 58 45 20 125 17 158 -5z"/>
</g>
</svg>