<svg version="1.1" viewBox="0 56.00000000000001 201.6 90.8" xmlns:xlink="http://www.w3.org/1999/xlink" xmlns="http://www.w3.org/2000/svg" style="max-height: 500px" width="201.6" height="90.8">
<g id="surface1">
<path d="M 22.699219 75.398438 L 26.699219 75.398438 L 26.898438 79.199219 L 27.199219 80.398438 L 27.800781 81.5 L 28.800781 82.601562 L 29.898438 83.300781 L 31 83.800781 L 31.5 83.898438 L 33.800781 83.898438 L 34.898438 83.601562 L 36 83 L 37 82.199219 L 37.800781 81.101562 L 38.398438 79.800781 L 38.601562 78.5 L 38.699219 75.398438 L 50.199219 75.398438 L 50.300781 78.300781 L 50.5 80 L 51.101562 81.199219 L 51.800781 82.101562 L 52.699219 82.898438 L 54.199219 83.699219 L 55.101562 83.898438 L 57.300781 83.898438 L 58.300781 83.601562 L 59.5 83 L 60.5 82.101562 L 61.101562 81.398438 L 61.800781 80 L 62 79.101562 L 62.101562 75.398438 L 66.101562 75.398438 L 67.300781 75.699219 L 68.800781 76.5 L 69.800781 77.398438 L 70.5 78.300781 L 71.199219 79.800781 L 71.398438 80.601562 L 71.398438 119.800781 L 71.199219 120.601562 L 70.5 122.199219 L 69.601562 123.300781 L 68.800781 124 L 68 124.5 L 66.398438 125 L 65.199219 125.199219 L 23.300781 125.199219 L 21.5 124.699219 L 20.699219 124.300781 L 19.800781 123.601562 L 19.300781 123.199219 L 18.398438 122 L 17.800781 120.5 L 17.601562 119.800781 L 17.601562 80.601562 L 18 79.300781 L 18.601562 78.101562 L 19.5 77 L 20.601562 76.199219 L 22.101562 75.5 Z M 23.398438 87.199219 L 22.699219 87.898438 L 22.601562 91.5 L 22.601562 97 L 22.800781 98 L 23.199219 98.398438 L 34.300781 98.398438 L 34.800781 97.898438 L 34.800781 87.898438 L 34.300781 87.398438 L 34 87.199219 Z M 39.300781 87.199219 L 38.800781 87.5 L 38.601562 87.898438 L 38.5 89.101562 L 38.5 97.699219 L 38.800781 98.199219 L 39.101562 98.398438 L 49.898438 98.398438 L 50.398438 98 L 50.5 97.699219 L 50.5 88 L 49.898438 87.300781 L 49.699219 87.199219 Z M 54.898438 87.199219 L 54.300781 87.699219 L 54.199219 87.898438 L 54.101562 93.699219 L 54.101562 97 L 54.199219 97.898438 L 54.699219 98.398438 L 60.601562 98.398438 L 59.699219 99.601562 L 58.601562 101.101562 L 58 102 L 54.800781 102.101562 L 54.300781 102.5 L 54.199219 102.699219 L 54.101562 104.199219 L 54.101562 107.300781 L 53.300781 108.5 L 52.398438 109.699219 L 52 110.199219 L 51.601562 110 L 50.601562 109 L 50.5 102.800781 L 50.199219 102.300781 L 49.898438 102.101562 L 49 102 L 45.898438 102 L 39.101562 102.101562 L 38.699219 102.398438 L 38.5 103.398438 L 38.5 112.398438 L 38.800781 112.898438 L 39.199219 113 L 41 113.101562 L 42.398438 114.398438 L 43.199219 115.101562 L 44.199219 116 L 44.699219 116.5 L 44.800781 116.800781 L 38.898438 116.800781 L 38.601562 117.199219 L 38.5 117.601562 L 38.5 120.101562 L 38.800781 120.699219 L 39.199219 120.898438 L 64.199219 120.898438 L 65.398438 120.800781 L 66 120.300781 L 66.101562 120 L 66.199219 105.898438 L 67.5 104.101562 L 68.898438 102.199219 L 69.800781 100.800781 L 70.199219 99.699219 L 70.300781 99.199219 L 70.300781 97.898438 L 69.800781 96.5 L 69.101562 95.601562 L 68.300781 94.898438 L 67.300781 94.300781 L 66.199219 93.898438 L 66.101562 87.898438 L 65.601562 87.300781 L 65.300781 87.199219 Z M 23.199219 102.101562 L 22.699219 102.800781 L 22.601562 106.199219 L 22.601562 109.199219 L 22.699219 112.5 L 23.101562 112.898438 L 23.300781 113 L 34.300781 113 L 34.800781 112.800781 L 34.800781 102.699219 L 34.101562 102.101562 Z M 23.199219 116.800781 L 22.699219 117.398438 L 22.601562 118.199219 L 22.601562 119.601562 L 22.898438 120.5 L 23.199219 120.800781 L 23.699219 120.898438 L 33.101562 120.898438 L 34.398438 120.800781 L 34.699219 120.601562 L 34.800781 120.300781 L 34.800781 117.199219 L 34.5 116.800781 Z M 23.199219 116.800781" style="stroke:none;fill-rule:nonzero;fill:rgb(3.137255%,2.745098%,2.745098%);fill-opacity:1;"/>
<path d="M 81.300781 76.800781 L 87.5 76.800781 L 91.398438 76.898438 L 92.601562 77.199219 L 93.800781 77.800781 L 94.699219 78.5 L 95.5 79.5 L 96.300781 81.300781 L 96.398438 81.800781 L 96.398438 84.101562 L 96.101562 85.101562 L 95.398438 86.5 L 94.199219 87.800781 L 92.699219 88.800781 L 93.300781 89.699219 L 95.398438 93.199219 L 96.699219 95.398438 L 97.101562 96 L 97 96.101562 L 92.398438 96.101562 L 92 95.699219 L 90.601562 93 L 89.398438 90.800781 L 88.699219 89.5 L 88.699219 89.300781 L 85.5 89.300781 L 85.5 96 L 85.101562 96.101562 L 81.300781 96.101562 L 81.199219 96 L 81.199219 77.101562 Z M 85.5 80.199219 L 85.5 86 L 89.699219 85.898438 L 91 85.5 L 91.699219 84.898438 L 92.101562 84 L 92.199219 83.5 L 92.199219 82.398438 L 91.800781 81.300781 L 91 80.601562 L 90.101562 80.300781 L 89.5 80.199219 Z M 85.5 80.199219" style="stroke:none;fill-rule:nonzero;fill:rgb(3.137255%,2.745098%,2.745098%);fill-opacity:1;"/>
<path d="M 65.101562 96.5 L 66.699219 96.5 L 67.300781 96.800781 L 67.898438 97.5 L 68.199219 98.101562 L 68.300781 99 L 67.898438 100 L 66.5 102 L 65.300781 103.699219 L 64.398438 104.898438 L 63.699219 105.898438 L 62.699219 107.300781 L 61.398438 109.101562 L 60.199219 110.800781 L 58.800781 112.800781 L 57.601562 114.5 L 56.5 116 L 55.300781 117.699219 L 54.398438 118.699219 L 53.898438 119.101562 L 52.898438 119.5 L 51.898438 119.5 L 50.699219 119 L 49.5 117.898438 L 48.5 117 L 47.300781 115.898438 L 46.300781 115 L 45.199219 114 L 44.398438 113.300781 L 42.800781 111.800781 L 42.199219 111.101562 L 41.800781 110.101562 L 41.800781 109.300781 L 42.199219 108.398438 L 42.898438 107.601562 L 43.601562 107.300781 L 45.101562 107.300781 L 45.800781 107.601562 L 46.898438 108.5 L 47.800781 109.398438 L 48.601562 110.101562 L 51 112.300781 L 52 113.199219 L 52.101562 113.398438 L 52.5 113.5 L 52.601562 113.101562 L 53.699219 111.5 L 55 109.800781 L 56 108.398438 L 59.898438 103 L 60.800781 101.800781 L 62.101562 100 L 63.101562 98.601562 L 63.898438 97.5 L 64.398438 97 L 64.898438 96.601562 Z M 65.101562 96.5" style="stroke:none;fill-rule:nonzero;fill:rgb(3.137255%,2.745098%,2.745098%);fill-opacity:1;"/>
<path d="M 88 99.699219 L 90.699219 99.699219 L 92.300781 100.101562 L 93.699219 100.601562 L 94.699219 101.199219 L 95.800781 102.101562 L 96.601562 103.101562 L 97.101562 103.898438 L 97.898438 105.898438 L 98.101562 106.898438 L 98 107 L 93.699219 107 L 93.300781 106 L 92.898438 105.101562 L 92.300781 104.398438 L 91.199219 103.699219 L 90.398438 103.5 L 88.101562 103.5 L 87.199219 103.800781 L 86.199219 104.601562 L 85.5 105.5 L 85 106.5 L 84.699219 107.601562 L 84.5 108.699219 L 84.398438 110.101562 L 84.601562 111.601562 L 85 113.398438 L 85.800781 114.601562 L 86.5 115.300781 L 87.300781 115.800781 L 88 116 L 89.898438 116.101562 L 91.199219 115.898438 L 92.101562 115.398438 L 92.398438 115.101562 L 92.601562 115.101562 L 92.800781 114.699219 L 93.199219 114.199219 L 93.398438 113.699219 L 93.601562 113 L 98.101562 113 L 97.800781 114 L 97.101562 115.699219 L 96.300781 116.800781 L 95.398438 117.800781 L 94.5 118.5 L 93.5 119.101562 L 91.398438 119.800781 L 90.800781 119.898438 L 87.800781 119.898438 L 86.601562 119.601562 L 84.800781 118.898438 L 83.601562 118.101562 L 82.800781 117.398438 L 81.800781 116.101562 L 81 114.601562 L 80.398438 112.699219 L 80.199219 111.898438 L 80.101562 110.800781 L 80.101562 109 L 80.199219 107.699219 L 80.898438 105.300781 L 81.800781 103.601562 L 82.898438 102.199219 L 84.101562 101.199219 L 85.300781 100.5 L 87.5 99.800781 Z M 88 99.699219" style="stroke:none;fill-rule:nonzero;fill:rgb(3.137255%,2.745098%,2.745098%);fill-opacity:1;"/>
<path d="M 103.898438 81.398438 L 106.101562 81.398438 L 107.601562 81.699219 L 108.800781 82.300781 L 109.699219 83 L 110.398438 83.699219 L 111.199219 85.101562 L 111.699219 86.601562 L 112 88 L 112 89.800781 L 111.898438 89.898438 L 105.800781 89.898438 L 101.898438 90 L 102.300781 91.300781 L 103 92.300781 L 103.898438 92.898438 L 104.398438 93.101562 L 106.199219 93.101562 L 107.199219 92.601562 L 107.699219 92 L 107.898438 91.699219 L 111.5 91.699219 L 111.601562 92 L 111.199219 93.5 L 110.300781 94.601562 L 109 95.5 L 107.699219 96 L 106.601562 96.300781 L 105.300781 96.398438 L 104.300781 96.398438 L 103 96.199219 L 101.199219 95.5 L 100.101562 94.699219 L 99.398438 94 L 98.601562 92.699219 L 98.101562 91.5 L 97.898438 90.300781 L 97.898438 87.601562 L 98.101562 86.101562 L 98.898438 84.398438 L 99.699219 83.398438 L 100.699219 82.5 L 102.300781 81.699219 Z M 104 84.601562 L 103.199219 85 L 102.601562 85.800781 L 102 87 L 102 87.300781 L 108.101562 87.300781 L 108 86.699219 L 107.398438 85.601562 L 107 85.101562 L 106.300781 84.699219 L 106 84.601562 Z M 104 84.601562" style="stroke:none;fill-rule:nonzero;fill:rgb(3.137255%,2.745098%,2.745098%);fill-opacity:1;"/>
<path d="M 124.699219 104.699219 L 126.398438 104.699219 L 127.898438 105.101562 L 128.898438 105.699219 L 129.699219 106.5 L 130.398438 107.898438 L 130.699219 108.800781 L 130.699219 119.699219 L 130.5 119.800781 L 126.601562 119.800781 L 126.5 119.199219 L 126.5 110.199219 L 126.199219 109.199219 L 125.800781 108.601562 L 125.398438 108.300781 L 124.300781 108.101562 L 123.601562 108.101562 L 122.601562 108.398438 L 122.101562 108.800781 L 121.601562 109.601562 L 121.5 109.898438 L 121.398438 111.300781 L 121.398438 119.601562 L 121.199219 119.800781 L 117.300781 119.800781 L 117.199219 119.699219 L 117.101562 116.601562 L 117.101562 110.300781 L 117.199219 105 L 120.699219 105 L 120.800781 105.101562 L 120.800781 107.300781 L 121.300781 106.800781 L 122 106 L 123.101562 105.199219 L 123.898438 104.898438 Z M 124.699219 104.699219" style="stroke:none;fill-rule:nonzero;fill:rgb(4.313726%,3.921569%,3.921569%);fill-opacity:1;"/>
<path d="M 163.699219 104.699219 L 166 104.699219 L 167.699219 105.101562 L 169.101562 105.800781 L 170.199219 106.699219 L 171 107.800781 L 171.5 108.800781 L 172.101562 110.699219 L 172.101562 114 L 171.398438 116.199219 L 170.5 117.601562 L 169.699219 118.398438 L 168.601562 119.101562 L 166.898438 119.800781 L 166.300781 119.898438 L 163.199219 119.898438 L 162 119.601562 L 160.601562 118.898438 L 159.5 118 L 158.800781 117.101562 L 158.300781 116.300781 L 157.699219 114.5 L 157.5 113.601562 L 157.5 111.199219 L 157.898438 109.601562 L 158.300781 108.398438 L 159.300781 106.898438 L 160.300781 106 L 161.699219 105.199219 L 163.300781 104.800781 Z M 164.699219 107.898438 L 163.601562 108.101562 L 162.699219 108.699219 L 162.101562 109.699219 L 161.699219 111.300781 L 161.699219 113.398438 L 162.101562 115 L 162.699219 115.898438 L 163.5 116.5 L 164 116.699219 L 165.699219 116.699219 L 166.699219 116.199219 L 167.398438 115.398438 L 167.699219 114.5 L 168 112.898438 L 168 112 L 167.699219 110.101562 L 167.300781 109.101562 L 166.800781 108.5 L 166.101562 108.101562 Z M 164.699219 107.898438" style="stroke:none;fill-rule:nonzero;fill:rgb(3.137255%,2.745098%,2.745098%);fill-opacity:1;"/>
<path d="M 106.101562 104.699219 L 108.398438 104.699219 L 110.199219 105.101562 L 111.800781 106 L 112.699219 106.800781 L 113.5 107.898438 L 114.300781 109.699219 L 114.5 111 L 114.601562 112.800781 L 114.398438 114.699219 L 113.898438 116.101562 L 113.199219 117.300781 L 112.300781 118.300781 L 111.101562 119.101562 L 109.601562 119.699219 L 108.699219 119.898438 L 105.699219 119.898438 L 104.5 119.601562 L 102.898438 118.800781 L 101.800781 117.800781 L 101.800781 117.601562 L 101.601562 117.601562 L 101 116.601562 L 100.398438 115.398438 L 100 113.101562 L 100 111.398438 L 100.300781 109.699219 L 100.601562 108.800781 L 101.398438 107.398438 L 102.300781 106.398438 L 103.101562 105.800781 L 104.199219 105.199219 L 105.800781 104.800781 Z M 106.398438 108 L 105.5 108.398438 L 104.800781 109.199219 L 104.300781 110.398438 L 104.199219 111.199219 L 104.199219 113.199219 L 104.398438 114.5 L 105 115.699219 L 105.800781 116.398438 L 106.398438 116.699219 L 108.199219 116.699219 L 109 116.300781 L 109.601562 115.800781 L 110.199219 114.601562 L 110.398438 114 L 110.5 112.5 L 110.398438 110.601562 L 109.898438 109.300781 L 109 108.300781 L 108.199219 108 Z M 106.398438 108" style="stroke:none;fill-rule:nonzero;fill:rgb(3.137255%,2.745098%,2.745098%);fill-opacity:1;"/>
<path d="M 133.601562 81.398438 L 135.800781 81.398438 L 137.199219 81.601562 L 138.300781 82 L 139.300781 82.699219 L 140.101562 83.5 L 140.898438 85.101562 L 141 85.699219 L 141 96 L 140.699219 96.101562 L 137.199219 96.101562 L 137.101562 96 L 137.199219 94.398438 L 136.398438 95.101562 L 135.898438 95.601562 L 134.699219 96.199219 L 133.5 96.398438 L 132.398438 96.398438 L 131.398438 96.199219 L 130.199219 95.699219 L 129.398438 95.199219 L 128.601562 94.398438 L 128 93.101562 L 127.800781 92.300781 L 127.800781 91.398438 L 128.199219 90.300781 L 128.699219 89.398438 L 129.101562 88.898438 L 130.5 88 L 132.898438 87.5 L 136.398438 87.101562 L 136.800781 87 L 136.898438 86.800781 L 136.898438 85.800781 L 136.5 85 L 135.5 84.5 L 135.199219 84.398438 L 134.300781 84.398438 L 133.300781 84.800781 L 132.800781 85.199219 L 132.398438 85.699219 L 128.398438 85.699219 L 128.5 84.800781 L 129.199219 83.601562 L 130.199219 82.601562 L 131.601562 81.800781 L 132.800781 81.5 Z M 136.101562 89.601562 L 133.800781 89.898438 L 132.5 90.300781 L 132 91.101562 L 131.898438 91.800781 L 132.199219 92.699219 L 132.601562 93.199219 L 133.398438 93.5 L 134.800781 93.5 L 135.601562 93.199219 L 136.398438 92.5 L 136.898438 91.601562 L 137 91.199219 L 137 89.601562 Z M 136.101562 89.601562" style="stroke:none;fill-rule:nonzero;fill:rgb(3.137255%,2.745098%,2.745098%);fill-opacity:1;"/>
<path d="M 118.898438 81.398438 L 121 81.398438 L 122.699219 81.699219 L 123.898438 82.300781 L 124.898438 83.199219 L 125.5 84 L 126.101562 85.300781 L 126.101562 85.601562 L 123.601562 85.699219 L 122.199219 85.699219 L 121.800781 85.300781 L 121.398438 84.800781 L 120.601562 84.398438 L 119.601562 84.300781 L 118.800781 84.5 L 118.199219 84.898438 L 118 85.101562 L 118 85.898438 L 118.398438 86.398438 L 119.199219 86.800781 L 120.199219 87 L 122.101562 87.300781 L 124.199219 88 L 125.300781 88.800781 L 126 89.800781 L 126.300781 90.800781 L 126.300781 92.398438 L 126.101562 93.300781 L 125.5 94.300781 L 125 94.800781 L 124.300781 95.398438 L 122.898438 96 L 121.898438 96.300781 L 120.601562 96.398438 L 119.398438 96.398438 L 117.898438 96.199219 L 116.199219 95.601562 L 115.199219 94.800781 L 114.398438 93.898438 L 113.699219 92.199219 L 113.699219 91.800781 L 117.699219 91.800781 L 118.398438 92.699219 L 119.199219 93.199219 L 119.898438 93.300781 L 120.800781 93.300781 L 121.5 93.101562 L 122 92.601562 L 122.199219 92.300781 L 122.199219 91.398438 L 121.800781 91 L 120.601562 90.5 L 119.101562 90.300781 L 117.699219 90.101562 L 115.898438 89.300781 L 115 88.601562 L 114.398438 87.800781 L 114 86.699219 L 113.898438 85.398438 L 114.398438 83.898438 L 115 83 L 115.898438 82.300781 L 117.101562 81.699219 L 117.898438 81.5 Z M 118.898438 81.398438" style="stroke:none;fill-rule:nonzero;fill:rgb(3.137255%,2.745098%,2.745098%);fill-opacity:1;"/>
<path d="M 135.199219 101.800781 L 139.300781 101.800781 L 139.300781 105 L 142.300781 105 L 142.398438 105.101562 L 142.398438 108.101562 L 139.300781 108.101562 L 139.398438 115.699219 L 139.601562 116.101562 L 140.398438 116.5 L 140.699219 116.601562 L 141.398438 116.601562 L 142 116.398438 L 142.199219 117.101562 L 142.5 118.601562 L 142.5 119.601562 L 141.300781 119.898438 L 138.601562 119.898438 L 137.601562 119.601562 L 136.5 119 L 135.699219 118.101562 L 135.300781 116.800781 L 135.199219 116.300781 L 135.101562 108.199219 L 133.199219 108.199219 L 133.101562 108.101562 L 133.101562 105 L 135.101562 105 Z M 135.199219 101.800781" style="stroke:none;fill-rule:nonzero;fill:rgb(3.137255%,2.745098%,2.745098%);fill-opacity:1;"/>
<path d="M 31.898438 69.300781 L 33.398438 69.300781 L 34.699219 69.800781 L 35.601562 70.398438 L 36.199219 71.101562 L 36.398438 71.5 L 36.5 76.898438 L 36.398438 79.199219 L 36 80.101562 L 35.101562 81.101562 L 34.5 81.5 L 33.800781 81.699219 L 32.300781 81.800781 L 31.199219 81.601562 L 30.398438 81.101562 L 29.601562 80.300781 L 29.199219 79.5 L 28.898438 78.5 L 28.898438 71.800781 L 29.398438 70.800781 L 30.101562 70.101562 L 31.300781 69.5 Z M 31.898438 69.300781" style="stroke:none;fill-rule:nonzero;fill:rgb(3.137255%,2.745098%,2.745098%);fill-opacity:1;"/>
<path d="M 175.699219 100 L 179.898438 100 L 179.898438 119.699219 L 179.601562 119.800781 L 175.800781 119.800781 L 175.699219 119.699219 Z M 175.699219 100" style="stroke:none;fill-rule:nonzero;fill:rgb(3.137255%,2.745098%,2.745098%);fill-opacity:1;"/>
<path d="M 55.398438 69.300781 L 56.898438 69.300781 L 58.398438 69.898438 L 59.300781 70.601562 L 59.800781 71.300781 L 59.898438 71.601562 L 59.898438 79 L 59.601562 79.898438 L 59.199219 80.5 L 58.699219 81 L 58 81.5 L 57.300781 81.699219 L 56 81.800781 L 54.699219 81.601562 L 53.800781 81 L 53.101562 80.300781 L 52.601562 79.300781 L 52.5 78.601562 L 52.5 71.800781 L 52.800781 70.898438 L 53.5 70.199219 L 55.101562 69.398438 Z M 55.398438 69.300781" style="stroke:none;fill-rule:nonzero;fill:rgb(3.137255%,2.745098%,2.745098%);fill-opacity:1;"/>
<path d="M 153.800781 104.898438 L 155.5 104.898438 L 155.601562 105.601562 L 155.601562 108.898438 L 152.601562 108.898438 L 151.601562 109.199219 L 150.800781 109.800781 L 150.398438 110.5 L 150.300781 111.101562 L 150.199219 119.699219 L 150 119.800781 L 146.101562 119.800781 L 146 119.699219 L 146 105 L 149.898438 105 L 150 105.101562 L 150.101562 107.5 L 150.800781 106.5 L 151.601562 105.699219 L 152.5 105.101562 Z M 153.800781 104.898438" style="stroke:none;fill-rule:nonzero;fill:rgb(3.137255%,2.745098%,2.745098%);fill-opacity:1;"/>
</g>
</svg>